<svg width="16" height="16" viewBox="0 0 16 16" fill="none" xmlns="http://www.w3.org/2000/svg">
<path d="M6.66671 9.33333H9.33337C9.51018 9.33333 9.67975 9.2631 9.80478 9.13807C9.9298 9.01305 10 8.84348 10 8.66667C10 8.48986 9.9298 8.32029 9.80478 8.19526C9.67975 8.07024 9.51018 8 9.33337 8H6.66671C6.4899 8 6.32033 8.07024 6.1953 8.19526C6.07028 8.32029 6.00004 8.48986 6.00004 8.66667C6.00004 8.84348 6.07028 9.01305 6.1953 9.13807C6.32033 9.2631 6.4899 9.33333 6.66671 9.33333ZM12.6667 2H3.33337C2.80294 2 2.29423 2.21071 1.91916 2.58579C1.54409 2.96086 1.33337 3.46957 1.33337 4V6C1.33337 6.17681 1.40361 6.34638 1.52864 6.4714C1.65366 6.59643 1.82323 6.66667 2.00004 6.66667H2.66671V12C2.66671 12.5304 2.87742 13.0391 3.25249 13.4142C3.62757 13.7893 4.13627 14 4.66671 14H11.3334C11.8638 14 12.3725 13.7893 12.7476 13.4142C13.1227 13.0391 13.3334 12.5304 13.3334 12V6.66667H14C14.1769 6.66667 14.3464 6.59643 14.4714 6.4714C14.5965 6.34638 14.6667 6.17681 14.6667 6V4C14.6667 3.46957 14.456 2.96086 14.0809 2.58579C13.7058 2.21071 13.1971 2 12.6667 2ZM12 12C12 12.1768 11.9298 12.3464 11.8048 12.4714C11.6798 12.5964 11.5102 12.6667 11.3334 12.6667H4.66671C4.4899 12.6667 4.32033 12.5964 4.1953 12.4714C4.07028 12.3464 4.00004 12.1768 4.00004 12V6.66667H12V12ZM13.3334 5.33333H2.66671V4C2.66671 3.82319 2.73695 3.65362 2.86197 3.5286C2.98699 3.40357 3.15656 3.33333 3.33337 3.33333H12.6667C12.8435 3.33333 13.0131 3.40357 13.1381 3.5286C13.2631 3.65362 13.3334 3.82319 13.3334 4V5.33333Z" fill="currentColor"/>
</svg>
