<svg width="16" height="16" viewBox="0 0 16 16" fill="none" xmlns="http://www.w3.org/2000/svg">
<path d="M9.33337 5.33337H10C10.1769 5.33337 10.3464 5.26314 10.4714 5.13811C10.5965 5.01309 10.6667 4.84352 10.6667 4.66671C10.6667 4.4899 10.5965 4.32033 10.4714 4.1953C10.3464 4.07028 10.1769 4.00004 10 4.00004H9.33337C9.15656 4.00004 8.98699 4.07028 8.86197 4.1953C8.73695 4.32033 8.66671 4.4899 8.66671 4.66671C8.66671 4.84352 8.73695 5.01309 8.86197 5.13811C8.98699 5.26314 9.15656 5.33337 9.33337 5.33337ZM9.33337 8.00004H10C10.1769 8.00004 10.3464 7.9298 10.4714 7.80478C10.5965 7.67975 10.6667 7.51018 10.6667 7.33337C10.6667 7.15656 10.5965 6.98699 10.4714 6.86197C10.3464 6.73695 10.1769 6.66671 10 6.66671H9.33337C9.15656 6.66671 8.98699 6.73695 8.86197 6.86197C8.73695 6.98699 8.66671 7.15656 8.66671 7.33337C8.66671 7.51018 8.73695 7.67975 8.86197 7.80478C8.98699 7.9298 9.15656 8.00004 9.33337 8.00004ZM6.00004 5.33337H6.66671C6.84352 5.33337 7.01309 5.26314 7.13811 5.13811C7.26314 5.01309 7.33337 4.84352 7.33337 4.66671C7.33337 4.4899 7.26314 4.32033 7.13811 4.1953C7.01309 4.07028 6.84352 4.00004 6.66671 4.00004H6.00004C5.82323 4.00004 5.65366 4.07028 5.52864 4.1953C5.40361 4.32033 5.33337 4.4899 5.33337 4.66671C5.33337 4.84352 5.40361 5.01309 5.52864 5.13811C5.65366 5.26314 5.82323 5.33337 6.00004 5.33337ZM6.00004 8.00004H6.66671C6.84352 8.00004 7.01309 7.9298 7.13811 7.80478C7.26314 7.67975 7.33337 7.51018 7.33337 7.33337C7.33337 7.15656 7.26314 6.98699 7.13811 6.86197C7.01309 6.73695 6.84352 6.66671 6.66671 6.66671H6.00004C5.82323 6.66671 5.65366 6.73695 5.52864 6.86197C5.40361 6.98699 5.33337 7.15656 5.33337 7.33337C5.33337 7.51018 5.40361 7.67975 5.52864 7.80478C5.65366 7.9298 5.82323 8.00004 6.00004 8.00004ZM14 13.3334H13.3334V2.00004C13.3334 1.82323 13.2631 1.65366 13.1381 1.52864C13.0131 1.40361 12.8435 1.33337 12.6667 1.33337H3.33337C3.15656 1.33337 2.98699 1.40361 2.86197 1.52864C2.73695 1.65366 2.66671 1.82323 2.66671 2.00004V13.3334H2.00004C1.82323 13.3334 1.65366 13.4036 1.52864 13.5286C1.40361 13.6537 1.33337 13.8232 1.33337 14C1.33337 14.1769 1.40361 14.3464 1.52864 14.4714C1.65366 14.5965 1.82323 14.6667 2.00004 14.6667H14C14.1769 14.6667 14.3464 14.5965 14.4714 14.4714C14.5965 14.3464 14.6667 14.1769 14.6667 14C14.6667 13.8232 14.5965 13.6537 14.4714 13.5286C14.3464 13.4036 14.1769 13.3334 14 13.3334ZM8.66671 13.3334H7.33337V10.6667H8.66671V13.3334ZM12 13.3334H10V10C10 9.82323 9.9298 9.65366 9.80478 9.52864C9.67975 9.40361 9.51018 9.33337 9.33337 9.33337H6.66671C6.4899 9.33337 6.32033 9.40361 6.1953 9.52864C6.07028 9.65366 6.00004 9.82323 6.00004 10V13.3334H4.00004V2.66671H12V13.3334Z" fill="currentColor"/>
</svg>
