<svg width="18" height="18" viewBox="0 0 18 18" fill="none" xmlns="http://www.w3.org/2000/svg">
<path d="M14.25 4.12502H9.54L9.3 3.37502C9.14441 2.93494 8.85581 2.55414 8.47418 2.28539C8.09254 2.01663 7.63677 1.87322 7.17 1.87502H3.75C3.15326 1.87502 2.58097 2.11207 2.15901 2.53403C1.73705 2.95598 1.5 3.52828 1.5 4.12502V13.875C1.5 14.4718 1.73705 15.0441 2.15901 15.466C2.58097 15.888 3.15326 16.125 3.75 16.125H14.25C14.8467 16.125 15.419 15.888 15.841 15.466C16.2629 15.0441 16.5 14.4718 16.5 13.875V6.37502C16.5 5.77828 16.2629 5.20598 15.841 4.78403C15.419 4.36207 14.8467 4.12502 14.25 4.12502ZM15 13.875C15 14.0739 14.921 14.2647 14.7803 14.4053C14.6397 14.546 14.4489 14.625 14.25 14.625H3.75C3.55109 14.625 3.36032 14.546 3.21967 14.4053C3.07902 14.2647 3 14.0739 3 13.875V4.12502C3 3.9261 3.07902 3.73534 3.21967 3.59469C3.36032 3.45403 3.55109 3.37502 3.75 3.37502H7.17C7.32723 3.37461 7.48062 3.42363 7.60847 3.51515C7.73633 3.60667 7.83219 3.73605 7.8825 3.88502L8.2875 5.11502C8.33781 5.26398 8.43367 5.39337 8.56153 5.48489C8.68938 5.5764 8.84277 5.62542 9 5.62502H14.25C14.4489 5.62502 14.6397 5.70403 14.7803 5.84469C14.921 5.98534 15 6.1761 15 6.37502V13.875Z" fill="currentColor"/>
</svg>
