<svg width="18" height="18" viewBox="0 0 18 18" fill="none" xmlns="http://www.w3.org/2000/svg">
<path d="M12.75 10.0575L9.53252 6.87749C9.4628 6.80719 9.37985 6.7514 9.28846 6.71332C9.19706 6.67524 9.09903 6.65564 9.00002 6.65564C8.90101 6.65564 8.80298 6.67524 8.71159 6.71332C8.6202 6.7514 8.53724 6.80719 8.46752 6.87749L5.28752 10.0575C5.21723 10.1272 5.16143 10.2102 5.12335 10.3016C5.08528 10.393 5.06567 10.491 5.06567 10.59C5.06567 10.689 5.08528 10.787 5.12335 10.8784C5.16143 10.9698 5.21723 11.0528 5.28752 11.1225C5.42804 11.2622 5.61813 11.3406 5.81627 11.3406C6.01441 11.3406 6.2045 11.2622 6.34502 11.1225L9.00002 8.46749L11.655 11.1225C11.7947 11.261 11.9833 11.3392 12.18 11.34C12.2787 11.3406 12.3766 11.3216 12.468 11.2843C12.5593 11.247 12.6424 11.192 12.7125 11.1225C12.7853 11.0553 12.8441 10.9743 12.8854 10.8842C12.9268 10.7942 12.9498 10.6968 12.9533 10.5978C12.9568 10.4988 12.9406 10.4 12.9057 10.3073C12.8708 10.2146 12.8179 10.1297 12.75 10.0575Z" fill="currentColor"/>
</svg>
