<svg width="28" height="28" viewBox="0 0 28 28" fill="none" xmlns="http://www.w3.org/2000/svg">
<path d="M25.6 10.3002V27.3001C25.6 27.5762 25.3762 27.8001 25.1 27.8001H16.9358C16.6597 27.8001 16.4358 27.5762 16.4358 27.3001V18.869C16.4358 18.3647 15.7738 18.1775 15.5098 18.6073L10.0079 27.5618C9.91691 27.7099 9.75561 27.8001 9.58186 27.8001H0.902383C0.50961 27.8001 0.2702 27.368 0.47845 27.035L11.1091 10.0351C11.2005 9.88894 11.3607 9.80017 11.5331 9.80017H25.1C25.3762 9.80017 25.6 10.024 25.6 10.3002Z" fill="#E0E0E0"/>
<path d="M18.7978 8.19916H19.1659C19.1659 8.19916 21.7566 8.20204 23.399 8.07704C26.2516 7.85994 28 5.92035 28 4.2307C28 2.40949 25.9587 0.824043 22.9456 0.0032827C22.8311 -0.0279169 22.7503 0.171792 22.8461 0.241946C23.0711 0.406839 23.2884 0.604694 23.399 0.811747C23.5687 1.12958 23.5948 1.32939 23.583 1.66649C23.5728 1.95647 23.5517 2.12733 23.399 2.39913C23.2526 2.65967 23.1254 2.80193 22.8468 3.00965C22.5744 3.21273 22.3829 3.31253 22.0186 3.43703C21.7155 3.5406 21.5225 3.569 21.1904 3.62018C20.3853 3.74428 19.1659 3.74228 19.1659 3.74228H18.7978M18.8001 3.7423H16.7503C16.7503 3.7423 15.5701 3.7443 14.7909 3.6202L14.7688 3.61668C14.4608 3.56766 14.2758 3.53822 13.9893 3.43705C13.6367 3.31255 13.4513 3.21277 13.1877 3.00967C12.9181 2.80197 12.795 2.65969 12.6533 2.39915C12.5055 2.12735 12.485 1.95649 12.4752 1.66651C12.4638 1.32942 12.4891 1.1296 12.6533 0.811771C12.7606 0.6043 12.9715 0.406061 13.1898 0.240967C13.2842 0.169582 13.202 -0.0276579 13.0881 0.00443871C10.1741 0.825527 8.20007 2.41035 8.20007 4.23072C8.20007 5.92037 9.89237 7.85996 12.6533 8.07706C14.2429 8.20206 16.7504 8.19918 16.7504 8.19918L18.8001 8.19916" fill="#E0E0E0"/>
</svg>
