<svg width="36" height="36" viewBox="0 0 36 36" fill="none" xmlns="http://www.w3.org/2000/svg">
<rect width="36" height="36" rx="10" fill="#EBEBEB"/>
<path d="M29.8125 11.1875V26.2188C29.8125 26.4949 29.5886 26.7188 29.3125 26.7188H22.258C21.9819 26.7188 21.758 26.4949 21.758 26.2188V18.9781C21.758 18.4722 21.0928 18.2862 20.8305 18.7188L16.1258 26.478C16.0352 26.6275 15.8731 26.7188 15.6983 26.7188H8.2086C7.81716 26.7188 7.57752 26.2893 7.78309 25.9562L17.059 10.9249C17.15 10.7773 17.3111 10.6875 17.4845 10.6875H29.3125C29.5886 10.6875 29.8125 10.9114 29.8125 11.1875Z" fill="black"/>
<path d="M11.7505 11.769C11.8027 11.7824 11.822 11.8015 11.8082 11.827C11.1694 11.92 10.3119 12.1077 9.76418 12.4524C8.79335 13.063 8.72389 14.1705 8.45005 15.1875C8.21628 14.0783 8.07331 12.902 6.96124 12.3383C6.38589 12.0468 5.69639 11.9229 5.06311 11.8267C5.0559 11.7873 5.1147 11.7827 5.14238 11.7769C5.85118 11.6268 6.60438 11.5205 7.2221 11.1147C8.10271 10.5362 8.23588 9.38647 8.45005 8.4375C8.59936 8.95689 8.67604 9.50032 8.87464 10.0099C9.39782 11.3519 10.4805 11.5153 11.7505 11.769Z" fill="black"/>
</svg>
