<svg width="28" height="28" viewBox="0 0 28 28" fill="none" xmlns="http://www.w3.org/2000/svg">
<rect x="0.75" y="0.75" width="26.5" height="26.5" rx="7.25" stroke="#FF1B0A" stroke-width="1.5"/>
<path d="M10.4265 5.85365C10.5839 5.34602 11.0534 5 11.5849 5C13.1077 5 14.6349 5 16.1889 5C16.8531 5 17.4383 5.43686 17.6271 6.07372C17.6313 6.0879 17.6355 6.1021 17.6397 6.11632C17.7457 6.43572 17.8529 6.75435 17.9623 7.07257C18.1957 7.75644 18.4145 8.44293 18.6103 9.13849C18.7122 9.49751 18.8302 9.84571 18.9612 10.1953C19.085 10.5389 19.1883 10.8888 19.2941 11.2382C19.3366 11.3767 19.3792 11.5151 19.4218 11.6535C19.4428 11.7218 19.4638 11.79 19.4855 11.8603C19.6783 12.4857 19.8757 13.1088 20.0872 13.7282C20.2351 14.1638 20.3611 14.604 20.4853 15.0468C20.5193 15.1646 20.5538 15.2823 20.5887 15.3998C20.6024 15.4464 20.6162 15.4929 20.6303 15.5409C20.6737 15.6728 20.7222 15.8031 20.7722 15.9328C20.8963 16.26 21.0031 16.5921 21.1096 16.9252C21.1307 16.991 21.1518 17.0567 21.1736 17.1244C21.2181 17.263 21.2625 17.4016 21.3069 17.5402C21.374 17.7497 21.4413 17.9592 21.5086 18.1687C21.704 18.7775 21.8987 19.3865 22.0868 19.9976C22.1646 20.2495 22.2453 20.5005 22.3258 20.7515C22.4846 21.2486 22.6398 21.7467 22.7932 22.2454C22.8137 22.312 22.8343 22.3786 22.8554 22.4473C22.8743 22.5088 22.8932 22.5704 22.9126 22.6338C22.9295 22.6888 22.9464 22.7438 22.9638 22.8004C22.9937 22.9047 22.9121 22.9924 22.8036 22.9924C21.1723 22.9924 19.5398 22.9924 17.8726 22.9924C17.3296 22.9924 16.8096 22.6783 16.668 22.1541C16.6489 22.0848 16.6299 22.0155 16.6102 21.944C16.591 21.8729 16.5717 21.8017 16.5519 21.7283C16.4231 21.252 16.2835 20.7869 16.1092 20.3248C16.0412 20.141 15.9866 19.9557 15.9357 19.7666C15.8314 19.3943 15.716 19.0267 15.5961 18.6592C15.5032 18.3746 15.4119 18.0897 15.3207 17.8046C15.2813 17.6823 15.2415 17.5601 15.201 17.4382C14.9017 16.5351 14.7038 15.5188 15.1082 14.6141C15.1356 14.5619 15.163 14.5097 15.1912 14.4559C15.2192 14.4002 15.2473 14.3446 15.2762 14.2873C15.7452 13.4382 16.4692 12.9317 17.3855 12.6369C17.6033 12.5746 17.8212 12.5215 18.0425 12.472C18.0947 12.4625 18.1332 12.4554 18.1639 12.4476C18.3313 12.4048 18.3898 12.1989 18.3842 12.0262C18.3845 11.9802 18.3849 11.9341 18.3852 11.8867C18.3746 11.6805 18.1325 11.6034 17.9314 11.5567C17.8731 11.5432 17.8145 11.5301 17.7555 11.5173C16.6874 11.2661 15.8121 10.8453 15.1788 9.92287C14.8353 9.3647 14.6202 8.80298 14.4884 8.16537C14.4479 7.96783 14.4352 7.90564 14.357 7.82662C14.2612 7.72998 14.1218 7.67209 13.9859 7.66796C13.8184 7.66286 13.661 7.75121 13.5802 7.89805C13.513 8.0203 13.4797 8.15091 13.4458 8.31201C13.2236 9.24621 12.8507 10.226 12.0147 10.7786C11.4172 11.1287 10.8202 11.3668 10.1462 11.5307C10.0828 11.5449 10.0335 11.5559 9.99267 11.5663C9.73584 11.6319 9.54909 11.9049 9.62207 12.1597C9.66427 12.3071 9.77058 12.4532 9.91242 12.5113C9.9759 12.5373 10.0439 12.5549 10.1287 12.5751C10.1871 12.5899 10.2454 12.6047 10.3056 12.6199C10.3673 12.6353 10.429 12.6506 10.4926 12.6665C11.4024 12.9092 12.1092 13.3087 12.6227 14.1111C12.6867 14.225 12.7488 14.3399 12.8088 14.4559C12.8364 14.5082 12.8639 14.5606 12.8923 14.6146C13.4323 15.8273 12.9219 17.1874 12.4772 18.346C12.2823 18.8857 12.137 19.4447 11.9808 19.9964C11.682 21.0495 11.682 21.0495 11.4858 21.5542C11.3729 21.8769 11.2866 22.2074 11.1982 22.5375C11.1153 22.8443 10.8455 23.0002 10.5277 23C10.5058 23 10.4838 22.9999 10.4617 22.9998C10.403 22.9998 10.3442 22.9999 10.2837 22.9999C10.0886 22.9998 9.89342 22.9993 9.69827 22.9988C9.56335 22.9987 9.42843 22.9986 9.29351 22.9985C8.93764 22.9983 8.58178 22.9976 8.22592 22.9969C7.86309 22.9962 7.50025 22.9959 7.13742 22.9956C6.65205 22.9951 6.16667 22.9944 5.68129 22.9936C5.33971 22.993 5.09363 22.6658 5.18793 22.3375C5.20545 22.2764 5.22296 22.2153 5.24101 22.1523C5.43889 21.4638 5.64604 20.78 5.89338 20.1072C6.0255 19.7455 6.13987 19.3809 6.24701 19.0113C6.45901 18.2832 6.69044 17.5609 6.91795 16.8374C6.97422 16.6581 7.03009 16.4787 7.08559 16.2991C7.231 15.8299 7.38658 15.3665 7.56046 14.9068C7.64118 14.6812 7.70586 14.4518 7.7714 14.2214C7.90431 13.7543 8.05039 13.2923 8.20129 12.8306C8.22724 12.7508 8.25318 12.671 8.27992 12.5887C8.426 12.1403 8.57476 11.6929 8.72656 11.2464C8.86147 10.8493 8.98181 10.4502 9.09544 10.0465C9.33851 9.19886 9.62652 8.36326 9.90947 7.52813C10.0974 6.97306 10.2688 6.41804 10.4265 5.85365Z" fill="#FF1B0A"/>
</svg>
