<svg width="26" height="26" viewBox="0 0 33 34" fill="none" xmlns="http://www.w3.org/2000/svg">
<g filter="url(#filter0_d_212_3992)">
<path d="M11.4341 1.04403C11.6325 0.422035 12.2105 -0.000152973 12.8634 -1.86881e-05L20.069 0.00146334C20.7315 0.00159961 21.3147 0.436511 21.5109 1.06929C22.1323 3.07374 22.822 5.13595 23.4533 7.11393L28.8518 24.0413C29.1604 25.0088 28.4385 25.9969 27.423 25.9971L21.8552 25.998C21.2152 25.9981 20.6462 25.5918 20.4596 24.9796C20.3549 24.6362 20.2524 24.2914 20.1523 23.9689L18.9499 20.0977L18.2892 17.9767C18.1388 17.4972 17.9347 16.9049 17.8556 16.4216C17.7496 15.7601 17.7829 15.0841 17.9534 14.436C18.4046 12.7851 19.6452 11.6099 21.2859 11.1421C21.7362 11.0003 22.2312 10.9653 22.6526 10.7472C22.9625 10.5868 23.0241 9.92215 22.7757 9.71913C22.4953 9.49003 21.9882 9.40854 21.6353 9.31556C20.0384 8.89481 18.9096 8.27861 18.048 6.85261C17.5755 6.00304 17.3798 5.16006 17.125 4.23055C16.9713 3.66994 16.0289 3.64379 15.8526 4.14577C15.6533 4.71322 15.5575 5.39051 15.3136 5.95771C14.7242 7.63297 13.4962 8.66287 11.8242 9.17208C11.7235 9.20277 11.6253 9.24281 11.5242 9.27237C11.1821 9.37233 10.5505 9.4368 10.3861 9.5681C9.62908 10.1725 10.1256 10.8147 10.8534 10.941C12.466 11.221 13.8539 12.0172 14.6185 13.4686C15.0237 14.2391 15.2066 15.1052 15.1473 15.972C15.0845 16.8332 14.3767 18.8628 14.0872 19.796L12.4896 24.9437C12.2947 25.5717 11.7136 25.9995 11.0562 25.9991L5.49236 25.9959C4.48732 25.9953 3.76805 25.0261 4.06919 24.0672C4.78553 21.7863 5.55312 19.4748 6.27183 17.2232L11.4341 1.04403Z" fill="#F0F0F0"/>
</g>
<defs>
<filter id="filter0_d_212_3992" x="0" y="0" width="32.9238" height="33.9991" filterUnits="userSpaceOnUse" color-interpolation-filters="sRGB">
<feFlood flood-opacity="0" result="BackgroundImageFix"/>
<feColorMatrix in="SourceAlpha" type="matrix" values="0 0 0 0 0 0 0 0 0 0 0 0 0 0 0 0 0 0 127 0" result="hardAlpha"/>
<feOffset dy="4"/>
<feGaussianBlur stdDeviation="2"/>
<feComposite in2="hardAlpha" operator="out"/>
<feColorMatrix type="matrix" values="0 0 0 0 0 0 0 0 0 0 0 0 0 0 0 0 0 0 0.25 0"/>
<feBlend mode="normal" in2="BackgroundImageFix" result="effect1_dropShadow_212_3992"/>
<feBlend mode="normal" in="SourceGraphic" in2="effect1_dropShadow_212_3992" result="shape"/>
</filter>
</defs>
</svg>
