<svg width="16" height="16" viewBox="0 0 16 16" fill="none" xmlns="http://www.w3.org/2000/svg">
<path d="M13.56 6.21334L4.22671 1.54667C3.85837 1.36334 3.44245 1.29808 3.03567 1.35977C2.62888 1.42147 2.25102 1.60712 1.9536 1.89141C1.65618 2.17571 1.45368 2.54482 1.3737 2.94841C1.29373 3.352 1.34018 3.77044 1.50671 4.14667L3.10671 7.72667C3.14301 7.81323 3.16171 7.90615 3.16171 8C3.16171 8.09386 3.14301 8.18678 3.10671 8.27334L1.50671 11.8533C1.37118 12.1578 1.31388 12.4913 1.34003 12.8236C1.36618 13.1558 1.47494 13.4763 1.65643 13.7558C1.83792 14.0353 2.08639 14.2651 2.37926 14.4241C2.67212 14.5832 3.0001 14.6666 3.33338 14.6667C3.64553 14.6636 3.95304 14.5907 4.23338 14.4533L13.5667 9.78667C13.8978 9.62013 14.1761 9.36487 14.3705 9.04939C14.565 8.73391 14.6679 8.3706 14.6679 8C14.6679 7.62941 14.565 7.2661 14.3705 6.95062C14.1761 6.63513 13.8978 6.37988 13.5667 6.21334H13.56ZM12.9667 8.59334L3.63338 13.26C3.51082 13.3189 3.3732 13.3388 3.23897 13.3172C3.10474 13.2957 2.98032 13.2335 2.88238 13.1392C2.78445 13.0449 2.7177 12.9229 2.69106 12.7896C2.66443 12.6563 2.67919 12.518 2.73338 12.3933L4.32671 8.81334C4.34734 8.76553 4.36514 8.71656 4.38004 8.66667H8.97338C9.15019 8.66667 9.31976 8.59643 9.44478 8.47141C9.5698 8.34638 9.64004 8.17682 9.64004 8C9.64004 7.82319 9.5698 7.65362 9.44478 7.5286C9.31976 7.40358 9.15019 7.33334 8.97338 7.33334H4.38004C4.36514 7.28345 4.34734 7.23448 4.32671 7.18667L2.73338 3.60667C2.67919 3.48198 2.66443 3.3437 2.69106 3.21038C2.7177 3.07706 2.78445 2.95507 2.88238 2.86077C2.98032 2.76647 3.10474 2.70436 3.23897 2.68277C3.3732 2.66119 3.51082 2.68116 3.63338 2.74L12.9667 7.40667C13.0759 7.46262 13.1676 7.54761 13.2315 7.6523C13.2955 7.75699 13.3294 7.87731 13.3294 8C13.3294 8.1227 13.2955 8.24302 13.2315 8.34771C13.1676 8.4524 13.0759 8.53739 12.9667 8.59334Z" fill="currentColor"/>
</svg>
