<svg width="16" height="16" viewBox="0 0 16 16" fill="none" xmlns="http://www.w3.org/2000/svg">
<path d="M14.4734 10.3867L11.46 7.38C11.5231 7.07292 11.5544 6.76016 11.5534 6.44667C11.5532 5.5871 11.3362 4.74147 10.9227 3.98793C10.5091 3.23438 9.91228 2.59726 9.18732 2.13543C8.46236 1.67361 7.63267 1.40199 6.77495 1.3457C5.91723 1.2894 5.05916 1.45023 4.28005 1.81334C4.18134 1.85843 4.09513 1.92694 4.02891 2.01291C3.96269 2.09888 3.91845 2.19972 3.90005 2.30667C3.88172 2.41226 3.88911 2.52072 3.92161 2.62284C3.9541 2.72497 4.01074 2.81775 4.08672 2.89334L6.98672 5.78667L5.78672 6.98667L2.89338 4.08667C2.81716 4.01187 2.72409 3.95648 2.62199 3.92516C2.5199 3.89383 2.41177 3.88749 2.30672 3.90667C2.20044 3.9244 2.10004 3.96763 2.01412 4.03265C1.9282 4.09766 1.85932 4.18254 1.81338 4.28C1.44907 5.06167 1.28837 5.92279 1.34624 6.78325C1.40412 7.6437 1.67868 8.47555 2.14439 9.20139C2.6101 9.92723 3.25183 10.5235 4.00988 10.9347C4.76793 11.3459 5.61767 11.5587 6.48005 11.5533C6.79354 11.5543 7.1063 11.5231 7.41338 11.46L10.42 14.4733C10.482 14.5358 10.5558 14.5854 10.637 14.6193C10.7182 14.6531 10.8054 14.6705 10.8934 14.6705C10.9814 14.6705 11.0685 14.6531 11.1498 14.6193C11.231 14.5854 11.3047 14.5358 11.3667 14.4733C11.4292 14.4114 11.4788 14.3376 11.5126 14.2564C11.5465 14.1751 11.5639 14.088 11.5639 14C11.5639 13.912 11.5465 13.8249 11.5126 13.7436C11.4788 13.6624 11.4292 13.5886 11.3667 13.5267L8.10005 10.26C8.01842 10.1789 7.91719 10.1203 7.8062 10.09C7.69522 10.0596 7.57827 10.0585 7.46672 10.0867C7.14483 10.1729 6.81327 10.2177 6.48005 10.22C5.98142 10.2244 5.48684 10.1301 5.02481 9.94252C4.56278 9.75495 4.14243 9.47781 3.78798 9.12707C3.43352 8.77633 3.15197 8.35893 2.95953 7.8989C2.76709 7.43888 2.66758 6.94532 2.66672 6.44667C2.66585 6.22335 2.68369 6.00035 2.72005 5.78L5.33338 8.4C5.39536 8.46249 5.46909 8.51209 5.55033 8.54593C5.63157 8.57978 5.71871 8.5972 5.80672 8.5972C5.89472 8.5972 5.98186 8.57978 6.0631 8.54593C6.14434 8.51209 6.21807 8.46249 6.28005 8.4L8.40005 6.26C8.52021 6.13569 8.58738 5.96956 8.58738 5.79667C8.58738 5.62378 8.52021 5.45765 8.40005 5.33334L5.80672 2.72C6.0271 2.68401 6.25008 2.66617 6.47338 2.66667C7.47475 2.66844 8.43449 3.06746 9.14194 3.77616C9.84938 4.48486 10.2467 5.44531 10.2467 6.44667C10.2444 6.77989 10.1996 7.11145 10.1134 7.43334C10.0852 7.54489 10.0863 7.66184 10.1167 7.77282C10.147 7.88381 10.2056 7.98504 10.2867 8.06667L13.5534 11.3333C13.6789 11.4589 13.8492 11.5294 14.0267 11.5294C14.2043 11.5294 14.3745 11.4589 14.5 11.3333C14.6256 11.2078 14.6961 11.0375 14.6961 10.86C14.6961 10.6825 14.6256 10.5122 14.5 10.3867H14.4734Z" fill="currentColor"/>
</svg>
