<svg width="16" height="16" viewBox="0 0 16 16" fill="none" xmlns="http://www.w3.org/2000/svg">
<path d="M10.6667 4.00004C10.6667 3.82323 10.5965 3.65366 10.4714 3.52864C10.3464 3.40361 10.1769 3.33337 10 3.33337H2.00004C1.82323 3.33337 1.65366 3.40361 1.52864 3.52864C1.40361 3.65366 1.33337 3.82323 1.33337 4.00004C1.33337 4.17685 1.40361 4.34642 1.52864 4.47144C1.65366 4.59647 1.82323 4.66671 2.00004 4.66671H5.33337V12C5.33337 12.1769 5.40361 12.3464 5.52864 12.4714C5.65366 12.5965 5.82323 12.6667 6.00004 12.6667C6.17685 12.6667 6.34642 12.5965 6.47144 12.4714C6.59647 12.3464 6.66671 12.1769 6.66671 12V4.66671H10C10.1769 4.66671 10.3464 4.59647 10.4714 4.47144C10.5965 4.34642 10.6667 4.17685 10.6667 4.00004ZM14 7.33337H10C9.82323 7.33337 9.65366 7.40361 9.52864 7.52864C9.40361 7.65366 9.33337 7.82323 9.33337 8.00004C9.33337 8.17685 9.40361 8.34642 9.52864 8.47144C9.65366 8.59647 9.82323 8.66671 10 8.66671H11.3334V12C11.3334 12.1769 11.4036 12.3464 11.5286 12.4714C11.6537 12.5965 11.8232 12.6667 12 12.6667C12.1769 12.6667 12.3464 12.5965 12.4714 12.4714C12.5965 12.3464 12.6667 12.1769 12.6667 12V8.66671H14C14.1769 8.66671 14.3464 8.59647 14.4714 8.47144C14.5965 8.34642 14.6667 8.17685 14.6667 8.00004C14.6667 7.82323 14.5965 7.65366 14.4714 7.52864C14.3464 7.40361 14.1769 7.33337 14 7.33337Z" fill="currentColor"/>
</svg>
