<svg width="16" height="16" viewBox="0 0 16 16" fill="none" xmlns="http://www.w3.org/2000/svg">
<path d="M7.99995 1.33337C6.70694 1.33583 5.44254 1.71425 4.36077 2.42253C3.279 3.13082 2.42655 4.1384 1.90725 5.32255C1.38794 6.50671 1.2242 7.81632 1.43597 9.09188C1.64774 10.3674 2.22587 11.5539 3.09995 12.5067C3.72423 13.1834 4.48191 13.7235 5.32524 14.0928C6.16857 14.4622 7.07927 14.6529 7.99995 14.6529C8.92063 14.6529 9.83133 14.4622 10.6747 14.0928C11.518 13.7235 12.2757 13.1834 12.9 12.5067C13.774 11.5539 14.3522 10.3674 14.5639 9.09188C14.7757 7.81632 14.612 6.50671 14.0927 5.32255C13.5734 4.1384 12.7209 3.13082 11.6391 2.42253C10.5574 1.71425 9.29297 1.33583 7.99995 1.33337ZM7.99995 13.3334C6.61893 13.3313 5.29256 12.7936 4.29995 11.8334C4.60131 11.0997 5.11397 10.4722 5.77279 10.0306C6.4316 9.58903 7.20682 9.35324 7.99995 9.35324C8.79308 9.35324 9.5683 9.58903 10.2271 10.0306C10.8859 10.4722 11.3986 11.0997 11.7 11.8334C10.7073 12.7936 9.38097 13.3313 7.99995 13.3334ZM6.66662 6.66671C6.66662 6.403 6.74482 6.14521 6.89132 5.92595C7.03783 5.70668 7.24607 5.53578 7.48971 5.43487C7.73334 5.33395 8.00143 5.30755 8.26007 5.35899C8.51871 5.41044 8.75629 5.53743 8.94276 5.7239C9.12923 5.91037 9.25622 6.14795 9.30766 6.40659C9.35911 6.66523 9.33271 6.93332 9.23179 7.17695C9.13087 7.42059 8.95998 7.62883 8.74071 7.77533C8.52145 7.92184 8.26366 8.00004 7.99995 8.00004C7.64633 8.00004 7.30719 7.85956 7.05714 7.60952C6.80709 7.35947 6.66662 7.02033 6.66662 6.66671ZM12.6066 10.6667C12.011 9.64788 11.0942 8.85539 9.99995 8.41337C10.3394 8.02848 10.5606 7.55381 10.6369 7.04633C10.7133 6.53885 10.6416 6.02012 10.4305 5.55237C10.2193 5.08463 9.87767 4.68775 9.44656 4.40935C9.01544 4.13096 8.51314 3.98287 7.99995 3.98287C7.48676 3.98287 6.98446 4.13096 6.55335 4.40935C6.12223 4.68775 5.7806 5.08463 5.56945 5.55237C5.3583 6.02012 5.28661 6.53885 5.36297 7.04633C5.43933 7.55381 5.66051 8.02848 5.99995 8.41337C4.90568 8.85539 3.98893 9.64788 3.39328 10.6667C2.91858 9.85811 2.66776 8.93768 2.66662 8.00004C2.66662 6.58555 3.22852 5.229 4.22872 4.2288C5.22891 3.22861 6.58546 2.66671 7.99995 2.66671C9.41444 2.66671 10.771 3.22861 11.7712 4.2288C12.7714 5.229 13.3333 6.58555 13.3333 8.00004C13.3321 8.93768 13.0813 9.85811 12.6066 10.6667Z" fill="currentColor"/>
</svg>
