<svg width="18" height="18" viewBox="0 0 18 18" fill="none" xmlns="http://www.w3.org/2000/svg">
<path d="M4.28252 4.7175C4.21119 4.64922 4.12708 4.5957 4.03502 4.56C3.85242 4.48499 3.64761 4.48499 3.46502 4.56C3.37295 4.5957 3.28884 4.64922 3.21752 4.7175L1.71752 6.2175C1.57629 6.35873 1.49695 6.55027 1.49695 6.75C1.49695 6.94973 1.57629 7.14127 1.71752 7.2825C1.85874 7.42373 2.05029 7.50307 2.25002 7.50307C2.44974 7.50307 2.64129 7.42373 2.78252 7.2825L3.00002 7.0575V12.75C3.00002 12.9489 3.07903 13.1397 3.21969 13.2803C3.36034 13.421 3.5511 13.5 3.75002 13.5C3.94893 13.5 4.13969 13.421 4.28035 13.2803C4.421 13.1397 4.50002 12.9489 4.50002 12.75V7.0575L4.71752 7.2825C4.78724 7.3528 4.87019 7.40859 4.96158 7.44667C5.05298 7.48474 5.15101 7.50435 5.25002 7.50435C5.34903 7.50435 5.44706 7.48474 5.53845 7.44667C5.62984 7.40859 5.71279 7.3528 5.78252 7.2825C5.85281 7.21278 5.90861 7.12983 5.94669 7.03843C5.98476 6.94704 6.00437 6.84901 6.00437 6.75C6.00437 6.65099 5.98476 6.55296 5.94669 6.46157C5.90861 6.37017 5.85281 6.28722 5.78252 6.2175L4.28252 4.7175ZM8.25002 6H15.75C15.9489 6 16.1397 5.92098 16.2803 5.78033C16.421 5.63968 16.5 5.44891 16.5 5.25C16.5 5.05109 16.421 4.86032 16.2803 4.71967C16.1397 4.57902 15.9489 4.5 15.75 4.5H8.25002C8.0511 4.5 7.86034 4.57902 7.71969 4.71967C7.57903 4.86032 7.50002 5.05109 7.50002 5.25C7.50002 5.44891 7.57903 5.63968 7.71969 5.78033C7.86034 5.92098 8.0511 6 8.25002 6ZM15.75 12H8.25002C8.0511 12 7.86034 12.079 7.71969 12.2197C7.57903 12.3603 7.50002 12.5511 7.50002 12.75C7.50002 12.9489 7.57903 13.1397 7.71969 13.2803C7.86034 13.421 8.0511 13.5 8.25002 13.5H15.75C15.9489 13.5 16.1397 13.421 16.2803 13.2803C16.421 13.1397 16.5 12.9489 16.5 12.75C16.5 12.5511 16.421 12.3603 16.2803 12.2197C16.1397 12.079 15.9489 12 15.75 12ZM15.75 8.25H8.25002C8.0511 8.25 7.86034 8.32902 7.71969 8.46967C7.57903 8.61032 7.50002 8.80109 7.50002 9C7.50002 9.19891 7.57903 9.38968 7.71969 9.53033C7.86034 9.67098 8.0511 9.75 8.25002 9.75H15.75C15.9489 9.75 16.1397 9.67098 16.2803 9.53033C16.421 9.38968 16.5 9.19891 16.5 9C16.5 8.80109 16.421 8.61032 16.2803 8.46967C16.1397 8.32902 15.9489 8.25 15.75 8.25Z" fill="currentColor"/>
</svg>
