<svg width="18" height="18" viewBox="0 0 18 18" fill="none" xmlns="http://www.w3.org/2000/svg">
<path d="M4.71752 10.7175L4.50002 10.9425V5.25C4.50002 5.05109 4.421 4.86032 4.28035 4.71967C4.13969 4.57902 3.94893 4.5 3.75002 4.5C3.5511 4.5 3.36034 4.57902 3.21969 4.71967C3.07903 4.86032 3.00002 5.05109 3.00002 5.25V10.9425L2.78252 10.7175C2.64129 10.5763 2.44974 10.4969 2.25002 10.4969C2.05029 10.4969 1.85874 10.5763 1.71752 10.7175C1.57629 10.8587 1.49695 11.0503 1.49695 11.25C1.49695 11.4497 1.57629 11.6413 1.71752 11.7825L3.21752 13.2825C3.28884 13.3508 3.37295 13.4043 3.46502 13.44C3.55479 13.4797 3.65186 13.5002 3.75002 13.5002C3.84817 13.5002 3.94524 13.4797 4.03502 13.44C4.12708 13.4043 4.21119 13.3508 4.28252 13.2825L5.78252 11.7825C5.85245 11.7126 5.90792 11.6296 5.94576 11.5382C5.98361 11.4468 6.00309 11.3489 6.00309 11.25C6.00309 11.1511 5.98361 11.0532 5.94576 10.9618C5.90792 10.8704 5.85245 10.7874 5.78252 10.7175C5.71259 10.6476 5.62957 10.5921 5.5382 10.5543C5.44684 10.5164 5.34891 10.4969 5.25002 10.4969C5.15112 10.4969 5.0532 10.5164 4.96183 10.5543C4.87046 10.5921 4.78745 10.6476 4.71752 10.7175ZM8.25002 6H15.75C15.9489 6 16.1397 5.92098 16.2803 5.78033C16.421 5.63968 16.5 5.44891 16.5 5.25C16.5 5.05109 16.421 4.86032 16.2803 4.71967C16.1397 4.57902 15.9489 4.5 15.75 4.5H8.25002C8.0511 4.5 7.86034 4.57902 7.71969 4.71967C7.57903 4.86032 7.50002 5.05109 7.50002 5.25C7.50002 5.44891 7.57903 5.63968 7.71969 5.78033C7.86034 5.92098 8.0511 6 8.25002 6ZM15.75 8.25H8.25002C8.0511 8.25 7.86034 8.32902 7.71969 8.46967C7.57903 8.61032 7.50002 8.80109 7.50002 9C7.50002 9.19891 7.57903 9.38968 7.71969 9.53033C7.86034 9.67098 8.0511 9.75 8.25002 9.75H15.75C15.9489 9.75 16.1397 9.67098 16.2803 9.53033C16.421 9.38968 16.5 9.19891 16.5 9C16.5 8.80109 16.421 8.61032 16.2803 8.46967C16.1397 8.32902 15.9489 8.25 15.75 8.25ZM15.75 12H8.25002C8.0511 12 7.86034 12.079 7.71969 12.2197C7.57903 12.3603 7.50002 12.5511 7.50002 12.75C7.50002 12.9489 7.57903 13.1397 7.71969 13.2803C7.86034 13.421 8.0511 13.5 8.25002 13.5H15.75C15.9489 13.5 16.1397 13.421 16.2803 13.2803C16.421 13.1397 16.5 12.9489 16.5 12.75C16.5 12.5511 16.421 12.3603 16.2803 12.2197C16.1397 12.079 15.9489 12 15.75 12Z" fill="currentColor"/>
</svg>
