<svg width="16" height="16" viewBox="0 0 16 16" fill="none" xmlns="http://www.w3.org/2000/svg">
<g clip-path="url(#clip0_76_2676)">
<path d="M7.99996 3.33329C7.07698 3.33329 6.17473 3.60699 5.4073 4.11977C4.63987 4.63255 4.04173 5.36138 3.68852 6.2141C3.33532 7.06682 3.2429 8.00514 3.42296 8.91038C3.60303 9.81563 4.04749 10.6471 4.70013 11.2998C5.35278 11.9524 6.1843 12.3969 7.08954 12.577C7.99479 12.757 8.9331 12.6646 9.78582 12.3114C10.6385 11.9582 11.3674 11.36 11.8802 10.5926C12.3929 9.82519 12.6666 8.92294 12.6666 7.99996C12.6666 6.76228 12.175 5.5753 11.2998 4.70013C10.4246 3.82496 9.23764 3.33329 7.99996 3.33329ZM7.99996 11.3333C7.34069 11.3333 6.69623 11.1378 6.14806 10.7715C5.5999 10.4053 5.17266 9.88466 4.92036 9.27557C4.66807 8.66648 4.60206 7.99626 4.73068 7.34966C4.8593 6.70305 5.17676 6.10911 5.64294 5.64294C6.10912 5.17676 6.70306 4.85929 7.34966 4.73067C7.99626 4.60206 8.66649 4.66807 9.27557 4.92036C9.88466 5.17265 10.4053 5.59989 10.7715 6.14806C11.1378 6.69622 11.3333 7.34069 11.3333 7.99996C11.3333 8.88401 10.9821 9.73186 10.357 10.357C9.73186 10.9821 8.88402 11.3333 7.99996 11.3333ZM7.99996 5.99996C7.6044 5.99996 7.21772 6.11726 6.88882 6.33702C6.55992 6.55678 6.30358 6.86914 6.1522 7.23459C6.00083 7.60004 5.96122 8.00218 6.03839 8.39014C6.11556 8.7781 6.30604 9.13447 6.58575 9.41417C6.86545 9.69388 7.22182 9.88436 7.60978 9.96153C7.99774 10.0387 8.39988 9.99909 8.76533 9.84772C9.13078 9.69634 9.44314 9.44 9.6629 9.1111C9.88266 8.7822 9.99996 8.39552 9.99996 7.99996C9.99996 7.46953 9.78925 6.96082 9.41418 6.58575C9.0391 6.21067 8.5304 5.99996 7.99996 5.99996ZM7.99996 8.66663C7.86811 8.66663 7.73921 8.62753 7.62958 8.55427C7.51995 8.48102 7.4345 8.3769 7.38404 8.25508C7.33358 8.13326 7.32038 7.99922 7.34611 7.8699C7.37183 7.74058 7.43532 7.62179 7.52856 7.52855C7.62179 7.43532 7.74058 7.37183 7.8699 7.3461C7.99922 7.32038 8.13327 7.33358 8.25508 7.38404C8.3769 7.4345 8.48102 7.51995 8.55428 7.62958C8.62753 7.73921 8.66663 7.8681 8.66663 7.99996C8.66663 8.17677 8.59639 8.34634 8.47137 8.47136C8.34634 8.59639 8.17677 8.66663 7.99996 8.66663ZM7.99996 0.666626C6.54957 0.666626 5.13174 1.09672 3.92578 1.90252C2.71982 2.70831 1.77989 3.85362 1.22485 5.19361C0.669803 6.53361 0.524579 8.00809 0.807537 9.43062C1.0905 10.8531 1.78893 12.1598 2.81451 13.1854C3.8401 14.211 5.14677 14.9094 6.5693 15.1924C7.99183 15.4753 9.46632 15.3301 10.8063 14.7751C12.1463 14.22 13.2916 13.2801 14.0974 12.0741C14.9032 10.8682 15.3333 9.45036 15.3333 7.99996C15.3333 6.05504 14.5607 4.18978 13.1854 2.81451C11.8101 1.43924 9.94488 0.666626 7.99996 0.666626ZM7.99996 14C6.81327 14 5.65324 13.6481 4.66654 12.9888C3.67985 12.3295 2.91081 11.3924 2.45669 10.2961C2.00256 9.1997 1.88374 7.9933 2.11525 6.82942C2.34676 5.66553 2.91821 4.59643 3.75732 3.75732C4.59644 2.9182 5.66553 2.34676 6.82942 2.11525C7.99331 1.88374 9.19971 2.00256 10.2961 2.45668C11.3924 2.91081 12.3295 3.67984 12.9888 4.66654C13.6481 5.65323 14 6.81327 14 7.99996C14 9.59126 13.3678 11.1174 12.2426 12.2426C11.1174 13.3678 9.59126 14 7.99996 14Z" fill="currentColor"/>
</g>
<defs>
<clipPath id="clip0_76_2676">
<rect width="16" height="16" fill="white"/>
</clipPath>
</defs>
</svg>
