<svg width="20" height="20" viewBox="0 0 18 18" fill="none" xmlns="http://www.w3.org/2000/svg">
<path d="M7.28252 7.65745L9.00002 5.93245L10.7175 7.65745C10.7872 7.72775 10.8702 7.78355 10.9616 7.82162C11.053 7.8597 11.151 7.8793 11.25 7.8793C11.349 7.8793 11.4471 7.8597 11.5384 7.82162C11.6298 7.78355 11.7128 7.72775 11.7825 7.65745C11.8528 7.58773 11.9086 7.50478 11.9467 7.41339C11.9848 7.32199 12.0044 7.22396 12.0044 7.12495C12.0044 7.02595 11.9848 6.92792 11.9467 6.83652C11.9086 6.74513 11.8528 6.66218 11.7825 6.59245L9.53252 4.34245C9.46279 4.27216 9.37984 4.21636 9.28845 4.17829C9.19706 4.14021 9.09903 4.12061 9.00002 4.12061C8.90101 4.12061 8.80298 4.14021 8.71158 4.17829C8.62019 4.21636 8.53724 4.27216 8.46752 4.34245L6.21752 6.59245C6.07629 6.73368 5.99695 6.92523 5.99695 7.12495C5.99695 7.32468 6.07629 7.51623 6.21752 7.65745C6.35874 7.79868 6.55029 7.87802 6.75002 7.87802C6.94974 7.87802 7.14129 7.79868 7.28252 7.65745ZM10.7175 11.0925L9.00002 12.8175L7.28252 11.0925C7.21259 11.0225 7.12957 10.9671 7.0382 10.9292C6.94684 10.8914 6.84891 10.8719 6.75002 10.8719C6.65112 10.8719 6.5532 10.8914 6.46183 10.9292C6.37046 10.9671 6.28745 11.0225 6.21752 11.0925C6.14759 11.1624 6.09212 11.2454 6.05427 11.3368C6.01643 11.4281 5.99695 11.5261 5.99695 11.625C5.99695 11.7238 6.01643 11.8218 6.05427 11.9131C6.09212 12.0045 6.14759 12.0875 6.21752 12.1575L8.46752 14.4075C8.53724 14.4777 8.62019 14.5335 8.71158 14.5716C8.80298 14.6097 8.90101 14.6293 9.00002 14.6293C9.09903 14.6293 9.19706 14.6097 9.28845 14.5716C9.37984 14.5335 9.46279 14.4777 9.53252 14.4075L11.7825 12.1575C11.9237 12.0162 12.0031 11.8247 12.0031 11.625C12.0031 11.4252 11.9237 11.2337 11.7825 11.0925C11.6413 10.9512 11.4497 10.8719 11.25 10.8719C11.0503 10.8719 10.8587 10.9512 10.7175 11.0925Z" fill="currentColor"/>
</svg>
