<svg width="16" height="16" viewBox="0 0 16 16" fill="none" xmlns="http://www.w3.org/2000/svg">
<path d="M5.33337 3.99996C5.46523 3.99996 5.59412 3.96086 5.70375 3.88761C5.81339 3.81435 5.89884 3.71023 5.94929 3.58841C5.99975 3.4666 6.01295 3.33255 5.98723 3.20323C5.96151 3.07391 5.89801 2.95512 5.80478 2.86189C5.71154 2.76865 5.59275 2.70516 5.46343 2.67944C5.33411 2.65371 5.20007 2.66691 5.07825 2.71737C4.95643 2.76783 4.85231 2.85328 4.77906 2.96291C4.70581 3.07255 4.66671 3.20144 4.66671 3.33329C4.66671 3.5101 4.73695 3.67967 4.86197 3.8047C4.98699 3.92972 5.15656 3.99996 5.33337 3.99996ZM14 12.6666H9.88004C9.78049 12.387 9.61997 12.1331 9.41011 11.9232C9.20024 11.7134 8.94631 11.5528 8.66671 11.4533V9.99996H11.3334C11.8638 9.99996 12.3725 9.78925 12.7476 9.41417C13.1227 9.0391 13.3334 8.53039 13.3334 7.99996V6.66663C13.3304 6.17326 13.1452 5.69838 12.8134 5.33329C13.1452 4.9682 13.3304 4.49333 13.3334 3.99996V2.66663C13.3334 2.13619 13.1227 1.62749 12.7476 1.25241C12.3725 0.87734 11.8638 0.666626 11.3334 0.666626H4.66671C4.13627 0.666626 3.62757 0.87734 3.25249 1.25241C2.87742 1.62749 2.66671 2.13619 2.66671 2.66663V3.99996C2.66965 4.49333 2.85485 4.9682 3.18671 5.33329C2.85485 5.69838 2.66965 6.17326 2.66671 6.66663V7.99996C2.66671 8.53039 2.87742 9.0391 3.25249 9.41417C3.62757 9.78925 4.13627 9.99996 4.66671 9.99996H7.33337V11.4533C7.05378 11.5528 6.79984 11.7134 6.58997 11.9232C6.38011 12.1331 6.21959 12.387 6.12004 12.6666H2.00004C1.82323 12.6666 1.65366 12.7369 1.52864 12.8619C1.40361 12.9869 1.33337 13.1565 1.33337 13.3333C1.33337 13.5101 1.40361 13.6797 1.52864 13.8047C1.65366 13.9297 1.82323 14 2.00004 14H6.12004C6.26018 14.3861 6.51579 14.7197 6.85215 14.9554C7.18851 15.1911 7.58929 15.3176 8.00004 15.3176C8.41079 15.3176 8.81157 15.1911 9.14793 14.9554C9.48429 14.7197 9.7399 14.3861 9.88004 14H14C14.1769 14 14.3464 13.9297 14.4714 13.8047C14.5965 13.6797 14.6667 13.5101 14.6667 13.3333C14.6667 13.1565 14.5965 12.9869 14.4714 12.8619C14.3464 12.7369 14.1769 12.6666 14 12.6666ZM4.00004 2.66663C4.00004 2.48981 4.07028 2.32025 4.1953 2.19522C4.32033 2.0702 4.4899 1.99996 4.66671 1.99996H11.3334C11.5102 1.99996 11.6798 2.0702 11.8048 2.19522C11.9298 2.32025 12 2.48981 12 2.66663V3.99996C12 4.17677 11.9298 4.34634 11.8048 4.47136C11.6798 4.59639 11.5102 4.66663 11.3334 4.66663H4.66671C4.4899 4.66663 4.32033 4.59639 4.1953 4.47136C4.07028 4.34634 4.00004 4.17677 4.00004 3.99996V2.66663ZM4.66671 8.66663C4.4899 8.66663 4.32033 8.59639 4.1953 8.47136C4.07028 8.34634 4.00004 8.17677 4.00004 7.99996V6.66663C4.00004 6.48982 4.07028 6.32025 4.1953 6.19522C4.32033 6.0702 4.4899 5.99996 4.66671 5.99996H11.3334C11.5102 5.99996 11.6798 6.0702 11.8048 6.19522C11.9298 6.32025 12 6.48982 12 6.66663V7.99996C12 8.17677 11.9298 8.34634 11.8048 8.47136C11.6798 8.59639 11.5102 8.66663 11.3334 8.66663H4.66671ZM8.00004 14C7.86819 14 7.73929 13.9609 7.62966 13.8876C7.52003 13.8144 7.43458 13.7102 7.38412 13.5884C7.33366 13.4666 7.32046 13.3326 7.34618 13.2032C7.37191 13.0739 7.4354 12.9551 7.52864 12.8619C7.62187 12.7687 7.74066 12.7052 7.86998 12.6794C7.9993 12.6537 8.13335 12.6669 8.25516 12.7174C8.37698 12.7678 8.4811 12.8533 8.55435 12.9629C8.62761 13.0725 8.66671 13.2014 8.66671 13.3333C8.66671 13.5101 8.59647 13.6797 8.47144 13.8047C8.34642 13.9297 8.17685 14 8.00004 14ZM5.33337 6.66663C5.20152 6.66663 5.07263 6.70573 4.96299 6.77898C4.85336 6.85223 4.76791 6.95635 4.71745 7.07817C4.667 7.19999 4.65379 7.33403 4.67952 7.46335C4.70524 7.59267 4.76873 7.71146 4.86197 7.8047C4.9552 7.89793 5.07399 7.96143 5.20331 7.98715C5.33263 8.01287 5.46668 7.99967 5.5885 7.94921C5.71031 7.89875 5.81443 7.81331 5.88769 7.70367C5.96094 7.59404 6.00004 7.46515 6.00004 7.33329C6.00004 7.15648 5.9298 6.98691 5.80478 6.86189C5.67975 6.73686 5.51018 6.66663 5.33337 6.66663Z" fill="currentColor"/>
</svg>
