<svg width="36" height="36" viewBox="0 0 36 36" fill="none" xmlns="http://www.w3.org/2000/svg">
<rect x="0.5" y="0.5" width="35" height="35" rx="11.5" stroke="#FF1B0A"/>
<path d="M13.2609 7.05574C13.4555 6.42793 14.0363 6 14.6936 6C16.8744 6 19.0615 6 21.2919 6C21.9561 6 22.5413 6.43686 22.73 7.07372C22.7707 7.21103 22.8117 7.34916 22.8529 7.48842C22.9943 7.9143 23.1372 8.33914 23.2831 8.76343C23.5943 9.67526 23.886 10.5906 24.1471 11.518C24.283 11.9967 24.4403 12.4609 24.6149 12.927C24.7801 13.3852 24.9177 13.8518 25.0588 14.3176C25.1155 14.5022 25.1722 14.6868 25.2291 14.8714C25.2571 14.9624 25.2851 15.0533 25.314 15.1471C25.5711 15.981 25.8342 16.8117 26.1163 17.6376C26.3135 18.2183 26.4815 18.8054 26.6471 19.3958C26.6925 19.5528 26.7384 19.7097 26.7849 19.8664C26.8032 19.9285 26.8216 19.9905 26.8404 20.0545C26.8983 20.2304 26.963 20.4042 27.0296 20.5771C27.195 21.0133 27.3374 21.4561 27.4794 21.9003C27.5076 21.988 27.5358 22.0756 27.5648 22.1659C27.6241 22.3507 27.6834 22.5354 27.7425 22.7202C27.832 22.9996 27.9217 23.2789 28.0114 23.5582C28.2721 24.37 28.5316 25.182 28.7824 25.9967C28.8862 26.3326 28.9937 26.6673 29.1011 27.0021C29.3128 27.6648 29.5198 28.3289 29.7243 28.9939C29.7517 29.0827 29.779 29.1715 29.8073 29.263C29.8324 29.3451 29.8576 29.4272 29.8835 29.5117C29.906 29.585 29.9285 29.6584 29.9517 29.7339C29.9916 29.8729 29.8827 29.9898 29.7381 29.9898C27.4957 29.9898 25.2515 29.9898 22.9567 29.9898C22.3582 29.9898 21.7926 29.6423 21.615 29.0707C21.5949 29.0062 21.5757 28.9403 21.5573 28.8722C21.5319 28.7797 21.5065 28.6873 21.4803 28.5921C21.4546 28.4971 21.429 28.4022 21.4026 28.3044C21.2308 27.6693 21.0447 27.0492 20.8123 26.4331C20.7216 26.188 20.6488 25.941 20.5809 25.6887C20.4418 25.1924 20.288 24.7023 20.1281 24.2122C20.0043 23.8328 19.8825 23.4529 19.761 23.0728C19.7085 22.9097 19.6553 22.7468 19.6013 22.5842C19.2022 21.3802 18.9384 20.0251 19.4776 18.8188C19.5141 18.7492 19.5506 18.6795 19.5882 18.6078C19.6257 18.5337 19.6631 18.4595 19.7016 18.3831C20.327 17.251 21.2922 16.5756 22.514 16.1826C22.8044 16.0995 23.095 16.0286 23.3899 15.9627C23.4596 15.9499 23.511 15.9405 23.5519 15.9301C23.775 15.8731 23.8531 15.5985 23.8456 15.3683C23.846 15.3069 23.8465 15.2455 23.847 15.1822C23.8449 15.142 23.8433 15.1105 23.84 15.0843C23.8144 14.8754 23.5422 14.8138 23.3375 14.7649C23.228 14.7387 23.1182 14.7138 23.0074 14.6898C21.5833 14.3547 20.4162 13.7937 19.5717 12.5638C19.1138 11.8196 18.827 11.0706 18.6512 10.2205C18.5973 9.9571 18.5803 9.87418 18.4759 9.76883C18.3483 9.63997 18.1624 9.56279 17.9811 9.55728C17.7578 9.55048 17.548 9.66828 17.4403 9.86407C17.3507 10.0271 17.3063 10.2012 17.261 10.416C16.9648 11.6616 16.4676 12.968 15.3529 13.7048C14.5562 14.1715 13.7603 14.489 12.8615 14.7076C12.777 14.7265 12.7113 14.7412 12.6569 14.7551C12.3145 14.8426 12.0654 15.2065 12.1628 15.5463C12.219 15.7428 12.3608 15.9376 12.5499 16.015C12.6345 16.0497 12.7252 16.0732 12.8382 16.1002C12.9161 16.1199 12.9939 16.1396 13.0741 16.1599C13.1564 16.1803 13.2387 16.2008 13.3235 16.2219C14.5366 16.5456 15.4789 17.0783 16.1636 18.1481C16.2489 18.3 16.3317 18.4532 16.4118 18.6078C16.4485 18.6777 16.4852 18.7475 16.5231 18.8195C17.2431 20.4364 16.5625 22.2499 15.9696 23.7947C15.7097 24.5142 15.516 25.2596 15.3078 25.9952C14.9093 27.3993 14.9093 27.3993 14.6477 28.0722C14.4972 28.5025 14.3822 28.9432 14.2643 29.3834C14.2578 29.4072 14.2517 29.4299 14.2458 29.4516C14.147 29.817 13.8192 29.999 13.4407 29.9999C13.388 30.0001 13.3352 30 13.2823 29.9998C13.204 29.9998 13.1257 29.9998 13.045 29.9998C12.7848 29.9998 12.5246 29.9991 12.2644 29.9984C12.0845 29.9982 11.9046 29.9981 11.7247 29.998C11.2502 29.9977 10.7757 29.9968 10.3012 29.9959C9.81745 29.995 9.33367 29.9946 8.8499 29.9941C8.20273 29.9935 7.55556 29.9926 6.90839 29.9915C6.45294 29.9907 6.12484 29.5544 6.25057 29.1167C6.27393 29.0352 6.29729 28.9537 6.32135 28.8697C6.58519 27.9517 6.86139 27.04 7.19118 26.1429C7.36734 25.6606 7.51983 25.1745 7.66268 24.6817C7.94535 23.711 8.25392 22.7478 8.55727 21.7833C8.63229 21.5442 8.70679 21.3049 8.78079 21.0655C8.97466 20.4398 9.18211 19.822 9.41395 19.2091C9.52157 18.9082 9.60782 18.6023 9.6952 18.2952C9.87241 17.6724 10.0672 17.0564 10.2684 16.4408C10.303 16.3344 10.3376 16.2279 10.3732 16.1183C10.568 15.5204 10.7664 14.9239 10.9688 14.3286C11.1486 13.7991 11.3091 13.2669 11.4606 12.7287C11.7847 11.5985 12.1687 10.4843 12.546 9.37084C12.7966 8.63075 13.0251 7.89072 13.2353 7.1382C13.2438 7.11072 13.2523 7.08323 13.2609 7.05574Z" fill="#FF1B0A"/>
</svg>
